<svg xmlns="http://www.w3.org/2000/svg" width="1200" height="675" viewBox="0 0 1200 675" role="img" aria-labelledby="title desc">
  <title id="title">라무라 성수 닭다리라멘</title>
  <desc id="desc">닭다리가 올라간 라멘을 연상시키는 대표 비주얼</desc>
  <defs>
    <linearGradient id="bg" x1="0" y1="0" x2="1" y2="1"><stop offset="0" stop-color="#fff7ed"/><stop offset="0.52" stop-color="#fde68a"/><stop offset="1" stop-color="#fb923c"/></linearGradient>
    <radialGradient id="plate" cx="50%" cy="48%" r="48%"><stop offset="0" stop-color="#fffaf0"/><stop offset="1" stop-color="#f8fafc"/></radialGradient>
    <filter id="shadow" x="-20%" y="-20%" width="140%" height="140%"><feDropShadow dx="0" dy="18" stdDeviation="16" flood-color="#7c2d12" flood-opacity="0.22"/></filter>
  </defs>
  <rect width="1200" height="675" fill="url(#bg)"/>
  <circle cx="210" cy="145" r="95" fill="#ffffff" opacity="0.28"/>
  <circle cx="1040" cy="560" r="140" fill="#ffffff" opacity="0.22"/>
  <g filter="url(#shadow)">
    <ellipse cx="600" cy="395" rx="360" ry="160" fill="url(#plate)"/>
    <ellipse cx="600" cy="392" rx="270" ry="105" fill="#fef3c7"/>
    <path d="M390 395 C470 305, 730 305, 810 395 C735 465, 465 465, 390 395Z" fill="#fbbf24" opacity="0.82"/>
    <path d="M420 395 C510 345, 690 345, 780 395" fill="none" stroke="#92400e" stroke-width="18" stroke-linecap="round" opacity="0.38"/>
    <path d="M450 430 C535 380, 670 385, 750 430" fill="none" stroke="#b45309" stroke-width="14" stroke-linecap="round" opacity="0.30"/>
    <circle cx="495" cy="355" r="16" fill="#ef4444" opacity="0.85"/>
    <circle cx="705" cy="355" r="16" fill="#16a34a" opacity="0.85"/>
    <circle cx="625" cy="445" r="12" fill="#ffffff" opacity="0.95"/>
  </g>
  <rect x="80" y="72" width="1040" height="128" rx="32" fill="#ffffff" opacity="0.86"/>
  <text x="120" y="128" font-family="Apple SD Gothic Neo, Pretendard, Noto Sans KR, sans-serif" font-size="42" font-weight="800" fill="#7c2d12">라무라 성수 닭다리라멘</text>
  <text x="120" y="173" font-family="Apple SD Gothic Neo, Pretendard, Noto Sans KR, sans-serif" font-size="25" font-weight="600" fill="#9a3412">2TV 생생정보 성수동 방송 맛집</text>
  <text x="90" y="622" font-family="Apple SD Gothic Neo, Pretendard, Noto Sans KR, sans-serif" font-size="20" fill="#7c2d12" opacity="0.82">※ 방송/업체 정보를 바탕으로 만든 참고용 대표 이미지입니다. 실제 메뉴 사진은 공식 자료 확인 후 교체 예정.</text>
</svg>