<svg xmlns="http://www.w3.org/2000/svg" width="1200" height="675" viewBox="0 0 1200 675" role="img" aria-labelledby="title desc">
  <title id="title">오늘N 선명진 배드민턴 셔틀콕, 상자·송판 뚫는 스매시의 정체 대표 정보 카드</title>
  <desc id="desc">오늘N 2744회 선명진 배드민턴 셔틀콕 이야기를 정리한 대표 이미지</desc>
  <defs>
    <linearGradient id="bg" x1="0" y1="0" x2="1" y2="1">
      <stop offset="0" stop-color="#0f172a" />
      <stop offset="0.55" stop-color="#1d4ed8" />
      <stop offset="1" stop-color="#38bdf8" />
    </linearGradient>
    <filter id="shadow" x="-20%" y="-20%" width="140%" height="140%">
      <feDropShadow dx="0" dy="18" stdDeviation="18" flood-color="#082f49" flood-opacity="0.3" />
    </filter>
  </defs>
  <rect width="1200" height="675" fill="url(#bg)" />
  <circle cx="1030" cy="120" r="170" fill="#ffffff" opacity="0.08" />
  <circle cx="170" cy="560" r="220" fill="#ffffff" opacity="0.08" />
  <g filter="url(#shadow)">
    <rect x="84" y="84" width="1032" height="507" rx="36" fill="#f8fafc" opacity="0.95" />
  </g>
  <text x="120" y="182" font-family="Arial, sans-serif" font-size="34" font-weight="700" fill="#1d4ed8">MBC 오늘N 2744회</text>
  <text x="120" y="262" font-family="Arial, sans-serif" font-size="52" font-weight="800" fill="#0f172a">선명진 배드민턴 셔틀콕</text>
  <text x="120" y="334" font-family="Arial, sans-serif" font-size="44" font-weight="800" fill="#0f172a">상자·송판 뚫는 스매시의 정체</text>
  <text x="120" y="412" font-family="Arial, sans-serif" font-size="26" font-weight="600" fill="#334155">고양 배드민턴장 장면과 파워·제구력 포인트 정리</text>
  <g transform="translate(830 208)">
    <ellipse cx="72" cy="162" rx="82" ry="22" fill="#bae6fd" opacity="0.75" />
    <path d="M56 16c16 0 28 10 28 24 0 8-4 15-10 20l-2 86-32 0-2-86c-6-5-10-12-10-20 0-14 12-24 28-24z" fill="#f8fafc" stroke="#0f172a" stroke-width="8" />
    <circle cx="56" cy="40" r="18" fill="#0f172a" />
    <path d="M112 82l104-36" stroke="#0f172a" stroke-width="14" stroke-linecap="round" />
    <ellipse cx="224" cy="44" rx="24" ry="20" fill="#f59e0b" />
    <rect x="238" y="24" width="76" height="40" rx="8" fill="#f97316" />
    <rect x="238" y="24" width="76" height="40" rx="8" fill="none" stroke="#7c2d12" stroke-width="6" />
  </g>
</svg>
