<svg xmlns="http://www.w3.org/2000/svg" width="1200" height="630" viewBox="0 0 1200 630" role="img" aria-labelledby="title desc">
  <title id="title">행궁동 돌판짜장 짜마 생방송 투데이 정보 카드</title>
  <desc id="desc">SBS 생방송 투데이 4045회 행궁동 돌판짜장 짜마 위치와 방문 정보</desc>
  <rect width="1200" height="630" fill="#fff7ed"/>
  <rect x="62" y="62" width="1076" height="506" rx="28" fill="#ffffff" stroke="#fed7aa" stroke-width="4"/>
  <circle cx="998" cy="144" r="88" fill="#ffedd5"/>
  <circle cx="1038" cy="188" r="46" fill="#fdba74"/>
  <text x="100" y="150" fill="#9a3412" font-family="Arial, sans-serif" font-size="34" font-weight="700">SBS 생방송 투데이 4045회</text>
  <text x="100" y="244" fill="#431407" font-family="Arial, sans-serif" font-size="58" font-weight="800">행궁동 돌판짜장 짜마</text>
  <text x="100" y="318" fill="#7c2d12" font-family="Arial, sans-serif" font-size="40" font-weight="700">수원행궁동본점 · 돌판짜장</text>
  <text x="100" y="405" fill="#57534e" font-family="Arial, sans-serif" font-size="28">경기 수원시 팔달구 화서문로 39 2층</text>
  <text x="100" y="468" fill="#9a3412" font-family="Arial, sans-serif" font-size="30" font-weight="700">방송일 2026.07.07 · UDT 행궁동 색다른 맛</text>
  <path d="M902 354c0 82-66 148-148 148s-148-66-148-148 66-148 148-148 148 66 148 148Z" fill="#fed7aa"/>
  <path d="M642 356h224" stroke="#9a3412" stroke-width="18" stroke-linecap="round"/>
  <path d="M676 408h156" stroke="#c2410c" stroke-width="16" stroke-linecap="round"/>
  <path d="M700 300c18-30 56-30 74 0 18-30 56-30 74 0" fill="none" stroke="#7c2d12" stroke-width="14" stroke-linecap="round"/>
</svg>
